<svg width="22" height="22" viewBox="0 0 22 22" fill="none" xmlns="http://www.w3.org/2000/svg">
  <!-- Accurate Tesla T Logo in monochrome -->
  <g transform="translate(4, 5) scale(0.12)">
    <path d="M0 10.12C15.01 5.37 32.73 2.76 51.52 2.76C70.3 2.76 88.02 5.37 103.04 10.12V0C86.75 3.01 69.34 4.67 51.52 4.67C33.7 4.67 16.29 3.01 0 0V10.12Z" fill="#FFFFFF"/>
    <path d="M51.52 14.53C49.33 14.53 47.16 14.57 45.02 14.65V18.6C47.15 18.52 49.32 18.49 51.52 18.49C53.72 18.49 55.89 18.52 58.02 18.6V14.65C55.87 14.57 53.71 14.53 51.52 14.53ZM45.02 24.1V64.63C45.02 68.74 46.54 72.58 49.07 75.54C50.28 76.95 51.65 78.18 53.16 79.2C52.05 79.52 51.04 79.91 50.14 80.37C45.41 82.8 41.52 86.83 40.54 91.56L39.81 96.22C43.5 93.38 47.74 91.31 52.33 90.15L52.51 86.13C52.54 86.13 52.57 86.13 52.6 86.13C53.28 86.13 53.83 86.68 53.83 87.36C53.83 87.72 53.56 88.02 53.21 88.07L51.81 88.35C49.19 88.63 47.01 90.11 46.2 92.21C45.83 93.18 45.74 94.24 45.92 95.3L46.23 97.09C48.01 97.94 49.88 98.63 51.83 99.16C51.62 98.49 51.52 97.77 51.52 97.03C51.52 93.64 54.27 90.9 57.65 90.9C61.04 90.9 63.79 93.64 63.79 97.03C63.79 97.77 63.69 98.49 63.48 99.16C65.43 98.63 67.3 97.94 69.08 97.09L69.39 95.3C69.57 94.24 69.48 93.18 69.11 92.21C68.3 90.11 66.12 88.63 63.5 88.35L62.1 88.07C61.75 88.02 61.48 87.72 61.48 87.36C61.48 86.68 62.03 86.13 62.71 86.13C62.74 86.13 62.77 86.13 62.8 86.13L62.98 90.15C67.57 91.31 71.81 93.38 75.5 96.22L74.77 91.56C73.79 86.83 69.9 82.8 65.17 80.37C64.27 79.91 63.26 79.52 62.15 79.2C63.66 78.18 65.03 76.95 66.24 75.54C68.77 72.58 70.29 68.74 70.29 64.63V24.1H45.02Z" fill="#FFFFFF"/>
  </g>
  
  <!-- Three Streaming Waves -->
  <path d="M18 7C19.5 9 19.5 13 18 15" stroke="#FFFFFF" stroke-width="1.2" stroke-linecap="round"/>
  <path d="M19.5 5.5C21.5 8.5 21.5 13.5 19.5 16.5" stroke="#FFFFFF" stroke-width="1.2" stroke-opacity="0.6" stroke-linecap="round"/>
  <path d="M21 4C23.5 7.5 23.5 14.5 21 18" stroke="#FFFFFF" stroke-width="1.2" stroke-opacity="0.3" stroke-linecap="round"/>
</svg>
